<?xml version="1.0" standalone="no"?>
<!DOCTYPE svg PUBLIC "-//W3C//DTD SVG 20010904//EN"
 "http://www.w3.org/TR/2001/REC-SVG-20010904/DTD/svg10.dtd">
<svg version="1.0" xmlns="http://www.w3.org/2000/svg"
 width="3380.000000pt" height="3376.000000pt" viewBox="0 0 3380.000000 3376.000000"
 preserveAspectRatio="xMidYMid meet">

<g transform="translate(0.000000,3376.000000) scale(0.100000,-0.100000)"
fill="#000000" stroke="none">
<path d="M14855 29270 c24 -4 -30 -8 -140 -9 -111 -2 -172 -6 -160 -11 13 -6
-21 -9 -93 -9 -68 -1 -111 -5 -107 -10 3 -6 -41 -11 -107 -14 -62 -2 -124 -6
-138 -9 -14 -4 -63 -12 -110 -19 -47 -7 -89 -15 -95 -19 -5 -4 -35 -8 -65 -9
-30 -2 -62 -7 -72 -12 -9 -5 -28 -9 -42 -9 -34 0 -119 -22 -127 -33 -3 -5 -9
-8 -13 -8 -3 1 -21 1 -38 1 -25 0 -29 -3 -18 -10 11 -7 -1 -10 -42 -10 -31 0
-60 -4 -63 -10 -3 -5 -24 -10 -46 -10 -21 0 -39 -4 -39 -10 0 -5 -13 -10 -30
-10 -16 0 -30 -4 -30 -10 0 -5 -13 -10 -30 -10 -16 0 -30 -4 -30 -10 0 -5 -15
-10 -34 -10 -19 0 -38 -4 -41 -10 -3 -5 -21 -10 -40 -10 -19 0 -37 -4 -40 -10
-3 -5 -17 -10 -30 -10 -13 0 -27 -4 -30 -10 -3 -5 -19 -10 -36 -10 -16 0 -29
-4 -29 -10 0 -5 -13 -10 -30 -10 -16 0 -30 -4 -30 -8 0 -4 -12 -9 -27 -10 -15
-1 -29 -5 -32 -10 -3 -4 -17 -9 -31 -10 -14 -2 -26 -8 -28 -13 -2 -5 -12 -9
-23 -9 -10 0 -19 -4 -19 -10 0 -5 -13 -10 -30 -10 -16 0 -30 -4 -30 -10 0 -5
-13 -10 -30 -10 -16 0 -30 -4 -30 -10 0 -5 -13 -10 -30 -10 -16 0 -30 -4 -30
-10 0 -5 -13 -10 -30 -10 -16 0 -30 -4 -30 -10 0 -5 -15 -10 -32 -10 -25 0
-29 -3 -18 -10 11 -7 4 -10 -27 -10 -24 0 -43 -4 -43 -10 0 -5 -11 -10 -24
-10 -14 0 -28 -4 -31 -10 -3 -5 -15 -10 -26 -10 -10 0 -19 -4 -19 -10 0 -5 -9
-10 -20 -10 -11 0 -20 -4 -20 -10 0 -5 -9 -10 -20 -10 -11 0 -20 -4 -20 -10 0
-5 -9 -10 -20 -10 -11 0 -20 -4 -20 -10 0 -5 -9 -10 -20 -10 -11 0 -20 -4 -20
-10 0 -5 -9 -10 -20 -10 -11 0 -20 -4 -20 -10 0 -5 -13 -10 -28 -10 -16 0 -34
-8 -42 -20 -8 -11 -22 -20 -32 -20 -10 0 -18 -4 -18 -10 0 -5 -9 -10 -20 -10
-11 0 -20 -4 -20 -10 0 -5 -13 -10 -30 -10 -16 0 -30 -4 -30 -10 0 -5 -9 -10
-20 -10 -11 0 -20 -4 -20 -10 0 -5 -8 -10 -18 -10 -10 0 -24 -9 -32 -20 -8
-11 -22 -20 -32 -20 -10 0 -18 -4 -18 -10 0 -5 -8 -10 -18 -10 -10 0 -24 -9
-32 -20 -8 -11 -22 -20 -32 -20 -10 0 -18 -4 -18 -10 0 -5 -9 -10 -20 -10 -11
0 -20 -4 -20 -10 0 -5 -8 -10 -18 -10 -10 0 -24 -9 -32 -20 -8 -11 -22 -20
-32 -20 -10 0 -18 -4 -18 -10 0 -5 -13 -10 -30 -10 -16 0 -30 -4 -30 -10 0 -5
-8 -10 -18 -10 -10 0 -24 -9 -32 -20 -8 -11 -22 -20 -32 -20 -10 0 -18 -4 -18
-10 0 -5 -7 -10 -16 -10 -8 0 -12 -4 -9 -10 3 -5 -1 -10 -10 -10 -10 0 -30
-13 -45 -30 -15 -16 -34 -30 -40 -30 -7 0 -20 -8 -29 -17 -9 -10 -23 -19 -31
-21 -8 -2 -16 -8 -18 -13 -2 -5 -12 -9 -23 -9 -10 0 -19 -4 -19 -10 0 -5 -7
-10 -16 -10 -8 0 -33 -18 -54 -40 -21 -22 -44 -40 -50 -40 -7 0 -25 -13 -40
-30 -15 -16 -33 -30 -40 -30 -7 0 -25 -14 -40 -30 -16 -17 -31 -31 -34 -30
-25 2 -30 -1 -16 -10 12 -8 11 -10 -5 -10 -11 0 -27 -9 -35 -20 -8 -11 -21
-20 -28 -20 -8 0 -27 -13 -42 -30 -15 -16 -33 -30 -40 -30 -6 0 -38 -27 -70
-60 -32 -33 -65 -60 -72 -60 -8 0 -20 -9 -28 -20 -8 -11 -24 -20 -35 -20 -16
0 -17 -2 -5 -10 13 -8 12 -10 -3 -10 -21 0 -52 -27 -38 -32 5 -2 3 -9 -5 -16
-9 -8 -14 -9 -14 -2 0 7 -5 6 -14 -2 -10 -9 -11 -15 -2 -20 6 -5 2 -8 -11 -8
-14 0 -23 -6 -23 -16 0 -18 -23 -44 -39 -44 -14 0 -435 -422 -439 -439 -1 -7
-38 -48 -82 -91 -44 -44 -80 -84 -80 -90 0 -7 -18 -29 -40 -50 -22 -21 -40
-44 -40 -50 0 -6 -18 -29 -40 -50 -22 -21 -40 -44 -40 -50 0 -6 -18 -29 -40
-50 -22 -21 -40 -43 -40 -49 0 -6 -18 -30 -40 -52 -22 -23 -40 -48 -40 -55 0
-8 -4 -14 -10 -14 -5 0 -10 -7 -10 -15 0 -8 -4 -15 -10 -15 -5 0 -10 -6 -10
-13 0 -7 -9 -19 -20 -27 -11 -8 -20 -21 -20 -28 0 -7 -18 -31 -40 -52 -22 -21
-40 -46 -40 -54 0 -9 -4 -16 -10 -16 -5 0 -10 -9 -10 -21 0 -11 -4 -17 -10
-14 -5 3 -10 0 -10 -7 0 -8 -9 -20 -20 -28 -11 -8 -20 -22 -20 -32 0 -10 -4
-18 -10 -18 -5 0 -10 -7 -10 -16 0 -9 -13 -29 -30 -44 -16 -15 -30 -34 -30
-42 0 -7 -9 -20 -20 -28 -11 -8 -20 -21 -20 -30 0 -9 -9 -22 -20 -30 -12 -9
-20 -26 -20 -43 0 -16 -4 -26 -10 -22 -5 3 -10 1 -10 -5 0 -6 -9 -20 -20 -32
-11 -12 -20 -28 -20 -35 0 -7 -4 -13 -10 -13 -5 0 -10 -9 -10 -20 0 -11 -4
-20 -10 -20 -5 0 -10 -9 -10 -20 0 -11 -4 -20 -10 -20 -5 0 -10 -9 -10 -20 0
-11 -4 -20 -10 -20 -5 0 -10 -9 -10 -21 0 -11 -4 -17 -10 -14 -5 3 -10 -1 -10
-9 0 -9 -4 -16 -10 -16 -5 0 -10 -7 -10 -16 0 -8 -4 -12 -10 -9 -5 3 -10 -3
-10 -14 0 -12 -4 -21 -10 -21 -5 0 -10 -9 -10 -20 0 -11 -4 -20 -10 -20 -5 0
-10 -13 -10 -30 0 -16 -4 -30 -10 -30 -5 0 -10 -9 -10 -20 0 -11 -4 -20 -9
-20 -5 0 -14 -13 -21 -30 -7 -16 -16 -30 -21 -30 -5 0 -9 -9 -9 -20 0 -11 -4
-20 -10 -20 -5 0 -10 -13 -10 -30 0 -16 -4 -30 -10 -30 -5 0 -10 -9 -10 -20 0
-11 -4 -20 -10 -20 -5 0 -10 -9 -10 -20 0 -11 -4 -20 -10 -20 -5 0 -10 -9 -10
-20 0 -11 -4 -20 -10 -20 -5 0 -10 -9 -10 -20 0 -11 -4 -20 -10 -20 -5 0 -10
-9 -10 -20 0 -11 -4 -20 -10 -20 -5 0 -10 -9 -10 -20 0 -11 -4 -20 -10 -20 -5
0 -10 -13 -10 -30 0 -16 -4 -30 -10 -30 -5 0 -10 -13 -10 -30 0 -16 -4 -30
-10 -30 -5 0 -10 -9 -10 -20 0 -11 -4 -20 -10 -20 -5 0 -10 -9 -10 -20 0 -11
-4 -20 -10 -20 -5 0 -10 -14 -10 -31 0 -17 -4 -28 -10 -24 -6 4 -10 -8 -10
-29 0 -20 -4 -36 -10 -36 -5 0 -10 -9 -10 -20 0 -11 -4 -20 -10 -20 -5 0 -10
-9 -10 -20 0 -11 -4 -20 -10 -20 -5 0 -10 -13 -10 -30 0 -16 -4 -30 -10 -30
-5 0 -10 -13 -10 -30 0 -16 -4 -30 -10 -30 -5 0 -10 -9 -10 -20 0 -11 -4 -20
-10 -20 -5 0 -10 -9 -10 -20 0 -11 -4 -20 -10 -20 -6 0 -10 -27 -10 -60 0 -33
-4 -60 -10 -60 -5 0 -10 -9 -10 -20 0 -28 -23 -100 -32 -100 -5 0 -8 -9 -8
-20 0 -11 -4 -20 -10 -20 -5 0 -10 -22 -10 -50 0 -27 -4 -50 -10 -50 -5 0 -10
-22 -10 -50 0 -27 -4 -50 -10 -50 -5 0 -10 -22 -10 -50 0 -27 -4 -50 -10 -50
-5 0 -10 -13 -10 -30 0 -16 -4 -30 -10 -30 -5 0 -10 -18 -10 -40 0 -22 -4 -40
-10 -40 -5 0 -10 -18 -10 -40 0 -22 -4 -40 -10 -40 -5 0 -10 -18 -10 -40 0
-22 -4 -40 -9 -40 -12 0 -21 -84 -27 -247 -3 -74 -9 -133 -15 -133 -5 0 -9
-36 -9 -80 0 -44 -4 -80 -9 -80 -5 0 -12 -37 -15 -82 -3 -46 -10 -139 -16
-208 -23 -302 -32 -728 -29 -1500 1 -448 4 -3324 6 -6390 2 -3362 7 -5576 13
-5580 5 -3 11 -59 14 -125 6 -154 15 -238 27 -250 5 -5 9 -35 9 -67 0 -32 4
-58 10 -58 6 0 10 -46 10 -119 0 -69 4 -122 10 -126 6 -3 10 -18 10 -32 0 -27
16 -84 31 -115 5 -10 9 -29 9 -43 0 -14 5 -25 10 -25 6 0 10 -13 10 -30 0 -16
5 -30 10 -30 6 0 10 -11 10 -24 0 -14 5 -28 10 -31 6 -3 10 -24 10 -46 0 -24
4 -38 10 -34 6 4 10 -12 10 -39 0 -25 5 -46 10 -46 6 0 10 -18 10 -40 0 -22 5
-40 10 -40 6 0 10 -9 10 -20 0 -11 5 -20 10 -20 6 0 10 -9 10 -20 0 -11 5 -20
10 -20 6 0 10 -13 10 -30 0 -16 5 -30 10 -30 6 0 10 -13 10 -30 0 -16 5 -30
10 -30 6 0 10 -13 10 -30 0 -16 5 -30 10 -30 6 0 10 -9 10 -20 0 -11 5 -20 10
-20 6 0 10 -9 10 -20 0 -11 5 -20 10 -20 6 0 10 -12 10 -26 0 -14 4 -23 10
-19 5 3 10 -3 10 -14 0 -12 5 -21 10 -21 6 0 10 -9 10 -20 0 -11 5 -20 10 -20
6 0 10 -13 10 -30 0 -16 5 -30 10 -30 6 0 10 -11 10 -24 0 -12 14 -37 30 -54
17 -18 30 -39 30 -47 0 -8 5 -15 10 -15 6 0 10 -13 10 -30 0 -16 5 -30 10 -30
6 0 10 -9 10 -20 0 -11 5 -20 10 -20 6 0 10 -7 10 -16 0 -8 5 -12 10 -9 6 3
10 -3 10 -14 0 -12 5 -21 10 -21 6 0 10 -8 10 -18 0 -10 9 -24 20 -32 11 -8
20 -24 20 -35 0 -16 2 -17 10 -5 8 12 10 11 10 -7 0 -13 5 -23 10 -23 6 0 10
-9 10 -20 0 -11 5 -20 10 -20 6 0 10 -8 10 -18 0 -10 9 -24 20 -32 11 -8 20
-22 20 -32 0 -10 5 -18 10 -18 6 0 10 -6 10 -14 0 -7 13 -27 30 -44 16 -18 30
-38 30 -45 0 -7 9 -19 20 -27 11 -8 20 -21 20 -30 0 -9 9 -22 20 -30 11 -8 20
-20 20 -28 0 -7 5 -10 10 -7 5 3 10 -1 10 -10 0 -10 12 -29 28 -43 15 -15 33
-39 41 -54 8 -16 18 -28 23 -28 4 0 8 -6 8 -14 0 -8 32 -46 70 -85 39 -39 70
-76 70 -82 0 -6 18 -28 40 -49 22 -21 40 -42 40 -47 0 -11 73 -83 83 -83 13 0
96 -88 90 -94 -4 -3 -1 -6 6 -6 14 0 41 -24 41 -36 0 -11 52 -64 63 -64 5 0
22 -13 37 -30 15 -16 33 -30 39 -30 6 0 43 -31 82 -70 39 -38 75 -70 80 -70 5
0 23 -14 41 -30 17 -17 37 -30 44 -30 8 0 14 -4 14 -10 0 -5 9 -10 21 -10 11
0 17 -4 14 -10 -3 -5 -1 -10 5 -10 5 0 24 -14 42 -30 17 -17 35 -30 40 -30 4
0 22 -14 40 -30 17 -17 37 -30 44 -30 8 0 14 -4 14 -8 0 -5 12 -15 28 -23 15
-8 36 -22 46 -31 11 -10 26 -18 33 -18 7 0 13 -4 13 -10 0 -5 9 -10 20 -10 11
0 20 -4 20 -10 0 -5 8 -10 18 -10 10 0 24 -9 32 -20 8 -11 20 -20 28 -20 7 0
22 -9 34 -20 12 -11 28 -20 35 -20 7 0 13 -4 13 -8 0 -4 22 -19 50 -33 27 -13
50 -27 50 -31 0 -5 9 -8 20 -8 11 0 20 -4 20 -10 0 -5 7 -10 16 -10 8 0 22 -7
31 -15 8 -9 28 -19 44 -22 16 -3 29 -9 29 -14 0 -5 9 -9 20 -9 11 0 20 -4 20
-10 0 -5 9 -10 20 -10 11 0 20 -4 20 -10 0 -5 9 -10 20 -10 11 0 20 -4 20 -10
0 -5 14 -10 30 -10 17 0 30 -4 30 -10 0 -5 15 -10 33 -10 24 0 28 -3 17 -10
-11 -7 -7 -10 18 -10 17 0 32 -4 32 -10 0 -5 9 -10 20 -10 11 0 20 -4 20 -10
0 -5 12 -10 26 -10 14 0 32 -6 40 -14 18 -19 165 -66 204 -66 18 0 29 -4 25
-10 -4 -6 5 -10 19 -10 14 0 26 -4 26 -10 0 -5 13 -10 29 -10 16 0 31 -4 33
-9 2 -6 14 -11 28 -13 14 -2 30 -7 36 -10 6 -4 29 -8 52 -9 23 -2 42 -7 42
-11 0 -4 28 -8 63 -9 46 -1 56 -3 37 -9 -20 -6 -14 -8 28 -9 28 -1 52 -5 52
-10 0 -5 15 -11 33 -14 17 -3 52 -11 77 -17 132 -33 321 -56 570 -69 231 -12
7888 -13 7810 -1 -25 4 81 8 235 9 158 2 269 6 255 11 -15 5 42 9 145 10 106
2 155 6 130 10 -33 6 -27 7 38 9 49 0 76 5 72 11 -4 6 24 10 77 10 57 0 78 3
68 10 -11 7 4 10 50 10 46 0 61 3 50 10 -11 7 1 10 40 10 39 0 51 3 40 10 -11
7 3 10 48 10 34 0 62 4 62 10 0 6 28 10 63 10 44 0 58 3 47 10 -11 7 0 10 38
10 28 0 52 5 52 10 0 6 9 10 21 10 11 0 17 4 14 10 -4 6 15 10 49 10 31 0 56
5 56 10 0 6 18 10 40 10 22 0 40 5 40 10 0 6 33 11 78 11 56 1 69 3 47 9 -25
6 -21 8 25 9 40 1 51 4 40 11 -11 7 -6 10 20 10 26 0 31 3 20 10 -11 7 -5 10
23 10 23 0 36 4 32 10 -4 6 7 10 24 10 17 0 31 5 31 10 0 6 9 10 20 10 11 0
20 5 20 10 0 6 14 10 30 10 17 0 30 5 30 10 0 6 24 10 53 10 37 0 48 3 37 10
-11 7 -3 10 30 10 33 0 41 3 30 10 -12 8 -9 10 13 10 16 0 26 4 22 10 -3 6 3
10 14 10 12 0 21 5 21 10 0 6 14 10 30 10 17 0 30 5 30 10 0 6 14 10 30 10 17
0 30 5 30 10 0 6 19 10 43 10 31 0 38 3 27 10 -11 7 -5 10 23 10 23 0 36 4 32
10 -4 6 7 10 27 10 25 0 29 3 18 10 -12 8 -11 10 8 10 12 0 25 0 28 -1 3 0 14
9 23 20 10 12 26 21 35 21 9 0 16 5 16 10 0 6 9 10 20 10 11 0 20 4 20 8 0 4
12 9 28 10 15 1 29 7 30 12 2 6 11 10 21 10 9 0 23 9 31 20 8 12 26 20 42 20
15 0 28 5 28 10 0 6 13 10 29 10 16 0 31 4 33 10 2 5 15 11 30 12 15 1 24 6
22 10 -3 4 2 8 10 8 9 0 16 5 16 10 0 6 9 10 20 10 11 0 20 5 20 10 0 6 9 10
19 10 11 0 21 4 23 9 2 5 10 11 18 13 8 2 22 11 31 21 9 9 24 17 33 17 9 0 16
5 16 10 0 6 8 10 18 10 10 0 24 9 32 20 8 11 22 20 32 20 10 0 18 5 18 10 0 6
14 10 30 10 17 0 30 5 30 10 0 6 14 10 30 10 17 0 30 5 30 10 0 6 15 10 33 11
17 0 26 3 20 6 -10 3 -10 8 1 19 8 8 20 14 26 14 6 0 29 18 50 40 21 22 46 40
54 40 9 0 16 5 16 10 0 6 8 10 18 10 10 0 24 9 32 20 8 11 22 20 32 20 10 0
18 5 18 10 0 6 9 10 20 10 11 0 20 5 20 10 0 6 9 10 19 10 11 0 21 4 23 9 2 5
10 11 18 13 8 2 31 20 51 40 24 25 39 34 42 25 3 -6 6 -2 6 11 1 13 7 22 16
22 9 0 27 11 41 25 14 14 30 22 36 19 7 -4 8 -2 4 4 -4 7 -2 12 5 12 6 0 20
10 30 22 11 12 19 16 19 8 0 -8 8 -4 19 8 10 12 26 22 35 22 9 0 16 5 16 10 0
6 6 10 14 10 8 0 46 32 85 70 39 39 76 70 82 70 6 0 24 14 40 31 16 17 29 25
29 19 0 -7 8 -3 19 8 10 12 24 22 30 22 7 0 30 18 51 40 21 21 43 41 51 42 7
2 35 24 62 50 27 27 54 48 59 48 5 0 23 14 38 30 15 17 33 30 39 30 7 0 65 54
131 120 66 66 124 120 130 120 5 0 10 5 10 10 0 6 7 10 15 10 8 0 15 6 15 14
0 8 68 82 150 165 83 84 150 156 150 162 0 5 32 41 70 80 39 38 70 74 70 80 0
6 18 28 40 49 22 21 40 46 40 54 0 9 5 16 10 16 6 0 10 7 10 16 0 8 3 13 8 11
4 -3 13 1 20 9 10 11 10 14 0 15 -7 0 -3 4 10 9 12 5 22 16 22 25 0 8 5 15 10
15 6 0 10 7 10 16 0 8 5 12 10 9 6 -3 10 1 10 10 0 9 11 27 25 41 14 14 24 28
21 32 -4 7 19 33 29 32 21 -1 25 1 20 10 -3 6 1 13 9 16 9 3 16 12 16 20 0 8
5 14 10 14 6 0 10 8 10 18 0 10 9 24 19 32 11 7 18 17 15 21 -2 4 7 19 21 33
14 14 25 30 25 37 0 6 14 24 30 39 17 15 30 33 30 40 0 7 12 24 28 39 32 31
52 64 52 86 0 8 5 15 10 15 6 0 10 7 10 16 0 9 14 29 30 44 17 15 30 35 30 44
0 9 5 16 10 16 6 0 10 9 10 20 0 11 5 20 10 20 6 0 10 7 10 15 0 8 5 15 10 15
6 0 10 7 10 15 0 8 5 15 10 15 6 0 10 9 10 20 0 11 5 20 10 20 6 0 10 7 10 16
0 9 5 12 12 8 6 -4 8 -3 5 3 -8 12 27 56 37 46 3 -3 6 6 6 21 0 16 4 25 10 21
6 -3 10 1 10 9 0 9 6 16 13 16 9 0 9 2 0 8 -9 6 -7 12 7 22 11 8 20 22 20 32
0 10 5 18 10 18 6 0 10 16 10 36 0 27 7 43 30 64 17 15 30 34 30 42 0 7 9 20
20 28 11 8 20 24 20 35 0 12 9 31 20 43 11 12 20 26 20 32 0 6 5 8 10 5 6 -4
10 7 10 24 0 17 5 31 10 31 6 0 10 14 10 30 0 17 5 30 10 30 6 0 10 7 10 16 0
8 5 12 10 9 6 -3 10 3 10 14 0 12 5 21 10 21 6 0 10 14 10 30 0 17 5 30 13 30
8 0 7 4 -3 10 -10 6 -11 10 -2 10 6 0 12 12 12 27 0 14 3 24 6 20 9 -9 34 19
34 37 0 9 5 16 10 16 6 0 10 9 10 20 0 11 5 20 10 20 6 0 10 8 10 19 0 24 25
73 33 64 4 -3 7 3 7 15 0 12 4 22 8 22 4 0 9 12 10 27 1 16 7 30 12 31 6 2 10
17 10 33 0 16 5 29 10 29 6 0 10 9 10 20 0 11 4 20 10 20 5 0 9 3 9 7 -4 23 2
43 11 38 6 -4 10 13 10 44 0 34 4 51 13 51 8 0 7 4 -3 10 -10 6 -11 10 -2 10
6 0 12 9 12 20 0 11 5 20 10 20 6 0 10 9 10 20 0 11 5 20 10 20 6 0 10 9 10
20 0 11 5 20 10 20 6 0 10 9 10 20 0 11 5 20 10 20 6 0 10 14 10 30 0 17 5 30
10 30 6 0 10 14 10 30 0 17 5 30 10 30 6 0 10 14 10 30 0 17 5 30 10 30 6 0
10 14 10 30 0 17 5 30 10 30 6 0 10 18 10 40 0 22 4 40 8 40 7 0 12 24 15 68
0 6 4 12 9 12 4 0 8 9 8 20 0 11 5 20 10 20 6 0 10 31 10 74 0 41 5 78 10 81
6 3 10 19 10 36 0 16 5 29 10 29 6 0 10 9 10 20 0 11 5 20 10 20 6 0 10 19 10
43 0 31 3 38 10 27 7 -11 10 0 10 38 0 28 4 52 9 52 9 0 17 33 27 118 4 23 9
42 13 42 3 0 7 28 9 63 2 34 7 66 13 72 5 5 9 31 9 57 0 26 5 48 10 48 6 0 10
37 10 90 0 53 4 90 10 90 6 0 10 24 10 53 0 37 3 48 10 37 8 -13 10 -13 10 2
0 9 -6 19 -12 21 -10 4 -10 6 0 6 8 1 12 22 12 71 0 40 4 70 10 70 6 0 10 53
10 139 0 84 4 142 10 146 12 8 13 862 1 869 -8 5 -9 39 -10 294 -1 106 -4 161
-11 157 -6 -4 -10 10 -10 34 0 23 -4 41 -10 41 -5 0 -10 23 -10 50 0 28 -4 50
-10 50 -5 0 -9 3 -9 8 6 37 -3 182 -11 177 -6 -4 -10 20 -10 64 0 41 -4 71
-10 71 -5 0 -10 18 -10 40 0 22 -4 40 -8 40 -5 0 -9 21 -11 48 -1 26 -6 49
-12 50 -5 2 -9 32 -9 67 0 35 -4 67 -10 70 -5 3 -10 33 -10 66 0 33 -4 59 -10
59 -5 0 -10 9 -10 20 0 11 -4 20 -10 20 -5 0 -10 14 -10 30 0 17 -4 30 -10 30
-5 0 -10 16 -10 36 0 19 -4 33 -8 30 -4 -2 -9 30 -10 72 -2 42 -7 78 -13 80
-5 2 -9 17 -9 33 0 16 -4 29 -10 29 -5 0 -10 7 -10 16 0 8 -4 13 -8 10 -4 -2
-9 11 -10 31 -2 20 -7 44 -12 54 -6 10 -10 38 -10 63 0 25 -4 46 -10 46 -5 0
-10 9 -10 20 0 11 -4 20 -10 20 -5 0 -10 11 -10 24 0 14 -4 28 -10 31 -5 3
-10 17 -10 31 0 14 -4 22 -10 19 -6 -4 -10 7 -10 24 0 17 -4 31 -10 31 -5 0
-10 9 -10 20 0 11 -5 20 -11 20 -5 0 -8 4 -4 9 3 5 0 16 -7 23 -28 30 -38 60
-38 108 0 32 -4 49 -10 45 -5 -3 -10 1 -10 11 0 9 -8 24 -18 33 -19 18 -42 76
-42 109 0 12 -4 22 -10 22 -5 0 -10 10 -10 23 0 13 -8 32 -18 43 -20 21 -22
26 -22 50 0 8 -4 12 -10 9 -5 -3 -10 0 -10 8 0 8 -7 27 -14 43 -8 15 -12 32
-9 37 3 6 1 7 -5 3 -7 -4 -12 -1 -12 8 0 9 -3 16 -8 16 -10 0 -30 49 -34 85
-2 17 -15 42 -31 57 -18 18 -23 28 -15 31 10 4 10 6 1 6 -8 1 -13 15 -13 34 0
24 -3 28 -10 17 -7 -11 -10 -7 -10 18 0 17 -4 32 -10 32 -5 0 -10 9 -10 20 0
11 -5 20 -11 20 -5 0 -8 4 -4 9 3 5 -6 21 -20 35 -14 14 -25 32 -25 41 0 8 -4
15 -10 15 -5 0 -10 8 -10 18 0 10 -9 24 -20 32 -12 8 -20 26 -20 42 0 15 -4
28 -10 28 -5 0 -10 7 -10 15 0 8 -13 29 -30 47 -16 17 -30 42 -30 55 0 14 -4
21 -10 18 -6 -4 -10 10 -10 35 0 25 -4 39 -10 35 -5 -3 -10 0 -10 8 0 8 -18
33 -40 56 -22 22 -40 48 -40 57 0 8 -4 12 -10 9 -5 -3 -10 -1 -10 5 0 6 -5 8
-10 5 -6 -4 -10 -3 -9 2 4 22 -2 43 -11 38 -9 -5 -15 24 -11 48 1 5 -3 6 -9 2
-5 -3 -10 -1 -10 5 0 6 -11 22 -25 36 -14 14 -23 30 -20 35 4 5 1 9 -4 9 -6 0
-11 9 -11 21 0 11 -4 17 -10 14 -5 -3 -10 0 -10 7 0 8 -9 20 -20 28 -11 8 -20
20 -20 26 0 6 -13 25 -30 42 -16 18 -30 40 -31 49 0 11 -3 13 -6 6 -3 -10 -8
-10 -19 1 -8 8 -14 20 -14 27 0 6 -13 25 -30 41 -16 15 -30 35 -30 43 0 8 -4
15 -10 15 -5 0 -9 3 -9 8 4 24 -2 52 -11 47 -5 -3 -10 -1 -10 5 0 6 -22 32
-50 58 -68 65 -77 72 -84 65 -3 -4 -6 0 -6 8 0 9 -9 25 -20 37 -11 12 -20 26
-20 32 0 5 -4 10 -10 10 -5 0 -10 7 -10 15 0 8 -4 15 -10 15 -5 0 -10 8 -10
18 0 19 -55 82 -72 82 -5 0 -6 5 -3 10 3 6 1 10 -5 10 -6 0 -8 5 -4 12 4 6 3
8 -3 5 -11 -7 -53 24 -53 40 0 5 -16 26 -35 47 -19 21 -32 43 -28 49 3 5 1 7
-4 4 -6 -4 -24 10 -39 30 -16 20 -47 55 -69 77 -22 23 -51 57 -65 75 -13 19
-77 88 -142 154 -65 65 -118 125 -118 133 0 8 -7 14 -16 14 -8 0 -12 5 -9 10
3 6 -1 10 -10 10 -8 0 -78 63 -155 140 -77 77 -144 140 -150 140 -6 0 -42 32
-80 70 -38 39 -74 70 -80 70 -5 0 -10 4 -10 8 0 14 -33 47 -50 50 -8 2 -16 8
-18 13 -2 5 -10 9 -19 9 -8 0 -28 14 -43 30 -15 17 -33 30 -40 30 -6 0 -29 18
-50 40 -21 22 -45 40 -52 40 -7 0 -20 9 -28 20 -8 11 -23 20 -33 20 -10 0 -15
5 -12 10 3 6 0 10 -7 10 -8 0 -20 9 -28 20 -8 11 -22 20 -32 20 -10 0 -18 4
-18 8 0 5 -12 15 -27 23 -16 8 -35 22 -44 31 -9 10 -24 18 -33 18 -9 0 -16 5
-16 10 0 6 -7 10 -16 10 -9 0 -28 12 -43 28 -14 15 -33 28 -41 30 -8 2 -16 8
-18 13 -2 5 -10 9 -18 9 -8 0 -24 9 -36 20 -12 11 -28 20 -35 20 -7 0 -13 5
-13 10 0 6 -7 10 -15 10 -19 0 -55 20 -76 43 -9 9 -24 17 -33 17 -9 0 -16 5
-16 10 0 6 -9 10 -20 10 -11 0 -20 4 -20 8 0 5 -12 15 -27 23 -16 8 -35 22
-44 31 -9 10 -28 18 -43 18 -14 0 -26 5 -26 10 0 6 -8 10 -18 10 -10 0 -24 9
-32 20 -8 11 -22 20 -32 20 -10 0 -18 5 -18 10 0 6 -9 10 -20 10 -11 0 -20 5
-20 10 0 6 -9 10 -20 10 -11 0 -20 5 -20 10 0 6 -9 10 -20 10 -11 0 -20 5 -20
10 0 6 -9 10 -20 10 -11 0 -20 5 -20 10 0 6 -9 10 -20 10 -11 0 -20 5 -20 10
0 6 -8 10 -18 10 -10 0 -24 9 -32 20 -8 11 -22 20 -32 20 -10 0 -18 5 -18 10
0 6 -13 10 -30 10 -16 0 -30 5 -30 10 0 6 -9 10 -20 10 -11 0 -20 5 -20 10 0
6 -9 10 -20 10 -11 0 -20 4 -20 8 0 12 -47 32 -75 32 -14 0 -25 5 -25 10 0 6
-13 10 -30 10 -16 0 -30 5 -30 10 0 6 -9 10 -20 10 -11 0 -20 5 -20 10 0 6 -9
10 -20 10 -11 0 -20 5 -20 10 0 6 -13 10 -30 10 -16 0 -30 5 -30 10 0 6 -9 10
-20 10 -11 0 -20 5 -20 10 0 6 -9 10 -20 10 -11 0 -20 5 -20 10 0 6 -9 10 -20
10 -11 0 -20 5 -20 10 0 6 -13 10 -30 10 -16 0 -30 5 -30 10 0 6 -9 10 -20 10
-28 0 -100 23 -100 32 0 5 -9 8 -19 8 -11 0 -21 4 -23 10 -1 5 -20 10 -40 12
-21 1 -38 6 -38 10 0 4 -13 8 -30 8 -16 0 -30 5 -30 10 0 6 -13 10 -30 10 -16
0 -30 5 -30 10 0 6 -9 10 -20 10 -11 0 -20 4 -20 8 0 5 -11 14 -24 20 -13 6
-27 20 -31 32 l-7 21 -19 -22 c-19 -22 -19 -22 -19 84 0 60 4 109 10 112 6 3
10 37 10 75 0 38 4 80 9 94 6 13 11 50 12 80 1 31 6 56 11 56 4 0 8 14 8 30 0
17 4 30 9 30 9 0 17 33 27 118 4 23 10 42 15 42 5 0 9 19 9 43 0 24 4 47 9 53
9 9 17 61 27 184 3 36 10 69 15 75 5 5 9 40 9 77 0 39 4 68 10 68 6 0 10 18
10 39 0 22 4 41 9 43 6 2 11 42 12 91 1 48 6 87 10 87 5 0 9 33 9 74 0 41 5
78 10 81 6 4 10 70 10 165 0 98 4 161 10 165 16 10 13 665 -3 684 -7 8 -7 12
-1 8 6 -3 11 0 11 8 0 8 -4 12 -9 9 -4 -3 -8 60 -8 140 0 91 -4 146 -10 146
-6 0 -10 35 -10 84 0 47 -4 88 -10 91 -5 3 -10 28 -10 56 0 27 -4 49 -10 49
-5 0 -10 18 -10 40 0 22 -4 40 -10 40 -6 0 -10 30 -10 70 0 40 -4 70 -10 70
-6 0 -10 30 -10 70 0 40 -4 70 -10 70 -5 0 -10 23 -10 50 0 28 -4 50 -10 50
-5 0 -10 22 -10 49 0 28 -4 53 -10 56 -5 3 -10 31 -10 61 0 30 -4 54 -10 54
-5 0 -10 15 -10 34 0 19 -4 38 -10 41 -5 3 -10 19 -10 36 0 16 -4 29 -10 29
-5 0 -10 23 -10 50 0 28 -4 50 -10 50 -6 0 -10 27 -10 60 0 33 -4 60 -10 60
-5 0 -10 18 -10 40 0 22 -5 40 -11 40 -5 0 -8 4 -4 9 3 5 -2 16 -10 24 -8 9
-15 27 -15 41 0 14 -4 26 -10 26 -5 0 -10 18 -10 40 0 22 -4 40 -10 40 -5 0
-10 12 -10 26 0 14 -7 32 -15 41 -8 8 -13 19 -10 24 4 5 1 9 -4 9 -6 0 -11 14
-11 30 0 17 -4 30 -10 30 -5 0 -10 14 -10 30 0 17 -4 30 -10 30 -5 0 -10 9
-10 20 0 11 -3 20 -8 20 -9 0 -32 72 -32 100 0 11 -4 20 -10 20 -5 0 -10 15
-10 34 0 19 -4 38 -10 41 -5 3 -10 13 -10 22 0 9 -8 23 -17 32 -10 9 -19 23
-21 31 -2 8 -8 17 -13 18 -5 2 -9 18 -9 35 0 18 -7 41 -15 51 -8 10 -12 23 -8
29 3 6 1 7 -5 3 -7 -4 -12 -1 -12 8 0 9 -4 16 -10 16 -5 0 -10 9 -10 20 0 11
-4 20 -10 20 -5 0 -10 7 -10 15 0 15 -19 55 -31 65 -3 3 -12 26 -20 53 -7 26
-16 47 -20 47 -3 0 -6 6 -6 13 -1 22 -8 41 -21 55 -7 8 -10 17 -8 21 3 4 -4
14 -15 21 -10 8 -19 22 -19 32 0 10 -4 18 -10 18 -5 0 -10 12 -10 26 0 15 -8
34 -18 43 -9 9 -23 28 -31 44 -8 15 -18 27 -23 27 -4 0 -8 9 -8 20 0 11 -4 20
-10 20 -5 0 -10 9 -10 20 0 11 -3 20 -8 20 -8 0 -38 61 -34 73 1 4 -2 7 -8 7
-5 0 -10 9 -10 20 0 11 -5 20 -10 20 -6 0 -9 3 -9 8 1 4 1 14 0 22 -1 13 -2
13 -11 0 -8 -12 -10 -11 -10 5 0 11 -9 27 -20 35 -11 8 -20 22 -20 32 0 10 -4
18 -10 18 -5 0 -10 8 -10 18 0 10 -9 24 -20 32 -11 8 -20 21 -20 28 0 8 -13
27 -30 42 -16 15 -30 35 -30 44 0 9 -4 16 -10 16 -5 0 -10 9 -10 20 0 11 -4
20 -10 20 -5 0 -10 8 -10 18 0 10 -9 24 -20 32 -11 8 -20 20 -20 27 0 7 -4 13
-10 13 -5 0 -10 5 -10 10 0 6 -16 26 -35 46 -19 19 -35 39 -35 44 0 5 -16 25
-35 44 -19 20 -35 42 -35 51 0 8 -4 15 -10 15 -5 0 -10 7 -10 15 0 9 -11 27
-25 41 -14 14 -25 29 -25 34 0 5 -20 30 -45 54 -25 25 -45 50 -45 56 0 6 -27
38 -60 70 -33 32 -60 64 -60 70 0 6 -36 46 -80 90 -44 44 -80 84 -80 90 0 7
-18 29 -40 50 -22 21 -40 44 -40 50 0 14 -128 140 -143 140 -6 0 -8 3 -4 6 8
8 -18 34 -33 34 -6 0 -18 7 -26 15 -9 8 -11 15 -5 15 6 0 -18 29 -54 65 -35
36 -69 65 -75 65 -6 0 -51 41 -100 90 -49 50 -94 90 -99 90 -5 0 -13 9 -16 20
-4 11 -10 18 -15 15 -5 -3 -33 18 -63 47 -29 29 -59 54 -66 56 -7 1 -39 29
-71 62 -33 33 -66 60 -74 60 -9 0 -16 5 -16 10 0 6 -8 10 -18 10 -10 0 -24 9
-32 20 -8 11 -23 20 -33 20 -10 0 -15 5 -12 10 3 6 0 10 -7 10 -8 0 -20 9 -28
20 -8 11 -21 20 -28 20 -8 0 -27 14 -42 30 -15 17 -33 30 -40 30 -6 0 -29 18
-50 40 -21 22 -46 40 -54 40 -9 0 -16 5 -16 10 0 6 -7 10 -15 10 -9 0 -27 11
-41 25 -14 14 -29 23 -33 21 -4 -3 -14 4 -21 15 -8 10 -21 19 -30 19 -9 0 -22
9 -30 20 -8 11 -21 20 -30 20 -9 0 -22 9 -30 20 -8 11 -21 20 -30 20 -9 0 -22
9 -30 20 -8 11 -23 20 -34 20 -11 0 -16 3 -13 7 8 7 -39 33 -60 33 -8 0 -28
14 -43 30 -19 20 -30 26 -33 18 -4 -10 -6 -10 -6 0 -1 6 -10 12 -21 12 -11 0
-20 5 -20 10 0 6 -9 10 -20 10 -11 0 -20 5 -20 10 0 6 -8 10 -18 10 -10 0 -24
9 -32 20 -8 11 -22 20 -32 20 -10 0 -18 5 -18 10 0 6 -8 10 -18 10 -10 0 -24
9 -32 20 -8 11 -22 20 -32 20 -10 0 -18 5 -18 10 0 6 -9 10 -20 10 -11 0 -20
5 -20 10 0 6 -13 10 -28 10 -16 0 -34 8 -42 20 -8 11 -22 20 -32 20 -10 0 -18
5 -18 10 0 6 -9 10 -20 10 -11 0 -20 5 -20 10 0 6 -13 10 -30 10 -16 0 -30 4
-30 9 0 5 -13 11 -29 14 -16 3 -36 13 -44 22 -9 8 -23 15 -31 15 -9 0 -16 4
-16 8 0 5 -22 15 -50 22 -27 7 -50 17 -50 22 0 4 -9 8 -20 8 -11 0 -20 3 -20
8 0 9 -72 32 -100 32 -11 0 -20 5 -20 10 0 6 -9 10 -20 10 -11 0 -20 5 -20 10
0 6 -9 10 -20 10 -11 0 -20 5 -20 10 0 6 -11 10 -24 10 -14 0 -28 5 -31 10 -3
6 -19 10 -36 10 -16 0 -29 5 -29 10 0 6 -13 10 -30 10 -16 0 -30 5 -30 10 0 6
-9 10 -20 10 -11 0 -20 5 -20 10 0 6 -13 10 -30 10 -16 0 -30 5 -30 10 0 6 -9
10 -20 10 -11 0 -20 5 -20 11 0 5 -4 8 -9 4 -5 -3 -16 2 -24 10 -9 8 -28 15
-44 15 -22 0 -25 2 -13 10 11 7 -1 10 -40 10 -39 0 -51 3 -40 10 11 7 0 10
-37 10 -29 0 -53 5 -53 10 0 6 -18 10 -40 10 -22 0 -40 5 -40 10 0 6 -22 10
-50 10 -27 0 -50 5 -50 10 0 6 -13 10 -30 10 -16 0 -30 5 -30 10 0 6 -27 10
-60 10 -33 0 -60 4 -60 10 0 6 -22 10 -50 10 -27 0 -50 5 -50 10 0 6 -13 10
-30 10 -16 0 -30 5 -30 10 0 6 -13 10 -30 10 -16 0 -30 5 -30 10 0 6 -28 10
-62 10 -45 0 -59 3 -48 10 11 7 0 10 -37 10 -29 0 -53 5 -53 10 0 6 -22 10
-50 10 -27 0 -50 5 -50 10 0 6 -31 10 -72 10 -51 0 -68 3 -58 10 10 7 -25 10
-110 11 -69 1 -128 1 -132 0 -5 0 -8 3 -8 8 0 4 -39 9 -87 10 -49 1 -89 6 -91
12 -2 5 -57 9 -123 9 -73 0 -119 4 -119 10 0 6 -113 10 -322 9 -178 -1 -305
-5 -283 -9z m572 -3279 c27 -6 87 -11 131 -12 45 -1 82 -6 82 -10 0 -5 32 -9
70 -9 40 0 70 -4 70 -10 0 -6 38 -10 93 -10 63 0 87 -3 77 -10 -10 -7 8 -10
60 -11 53 -1 68 -3 50 -9 -18 -6 -6 -8 43 -9 43 -1 66 -5 62 -11 -4 -6 7 -10
24 -10 17 0 31 -4 31 -10 0 -5 14 -10 30 -10 17 0 30 -4 30 -10 0 -5 14 -10
30 -10 17 0 30 -4 30 -10 0 -5 19 -10 43 -10 31 0 38 -3 27 -10 -11 -7 -7 -10
18 -10 17 0 32 -4 32 -10 0 -5 9 -10 20 -10 11 0 20 -4 20 -10 0 -5 9 -10 20
-10 11 0 20 -4 20 -10 0 -5 19 -10 43 -10 31 0 38 -3 27 -10 -11 -7 -7 -10 18
-10 17 0 32 -4 32 -10 0 -5 9 -10 20 -10 11 0 20 -4 20 -10 0 -5 9 -10 20 -10
11 0 20 -4 20 -10 0 -5 14 -10 30 -10 17 0 30 -4 30 -10 0 -5 12 -10 26 -10
14 0 23 -4 19 -10 -3 -5 3 -10 14 -10 12 0 21 -4 21 -10 0 -5 10 -10 23 -10
18 0 19 -2 7 -10 -11 -7 -7 -10 18 -10 17 0 32 -4 32 -10 0 -5 10 -10 23 -10
18 0 19 -2 7 -10 -12 -8 -11 -10 8 -10 12 0 22 -4 22 -10 0 -5 9 -10 20 -10
11 0 20 -4 20 -10 0 -5 9 -10 20 -10 11 0 20 -4 20 -10 0 -5 9 -10 20 -10 11
0 20 -4 20 -10 0 -5 10 -10 23 -10 18 0 19 -2 7 -10 -12 -8 -11 -10 8 -10 12
0 22 -4 22 -10 0 -5 9 -10 20 -10 11 0 20 -4 20 -10 0 -5 10 -10 23 -10 18 0
19 -2 7 -10 -12 -8 -11 -10 5 -10 11 0 27 -9 35 -20 8 -11 22 -20 32 -20 10 0
18 -4 18 -10 0 -5 10 -10 23 -11 12 0 17 -3 10 -6 -16 -6 30 -53 52 -53 8 0
15 -4 15 -10 0 -5 9 -10 20 -10 11 0 20 -4 20 -10 0 -5 10 -10 23 -10 18 0 19
-2 7 -10 -12 -8 -11 -10 5 -10 11 0 27 -9 35 -20 8 -11 20 -20 28 -20 20 0 64
-47 49 -53 -7 -3 -4 -6 6 -6 10 -1 36 -19 57 -41 21 -22 47 -40 57 -40 15 0
16 -2 3 -10 -13 -8 -12 -10 3 -10 17 0 112 -89 133 -126 6 -10 14 -18 18 -16
9 3 216 -206 216 -219 0 -5 23 -33 51 -60 28 -27 45 -49 39 -49 -6 0 7 -18 29
-39 23 -22 41 -45 41 -51 0 -7 14 -25 30 -40 17 -15 30 -35 30 -44 0 -9 5 -16
10 -16 6 0 10 -7 10 -16 0 -8 18 -33 41 -55 22 -21 35 -39 29 -39 -7 0 2 -13
19 -29 17 -16 31 -36 31 -45 0 -9 5 -16 10 -16 6 0 10 -8 10 -18 0 -10 9 -24
20 -32 11 -8 20 -21 20 -30 0 -9 9 -22 20 -30 11 -8 20 -22 20 -32 0 -10 5
-18 10 -18 6 0 10 -13 10 -30 0 -16 5 -30 10 -30 6 0 10 -7 10 -16 0 -9 14
-29 30 -44 17 -15 30 -35 30 -44 0 -9 5 -16 10 -16 6 0 10 -10 10 -22 0 -19 2
-20 10 -8 7 11 10 7 10 -17 0 -18 5 -33 10 -33 6 0 10 -13 10 -30 0 -16 5 -30
10 -30 6 0 10 -9 10 -20 0 -11 5 -20 10 -20 6 0 10 -9 10 -20 0 -11 5 -20 10
-20 6 0 10 -9 10 -20 0 -11 5 -20 10 -20 6 0 10 -13 10 -30 0 -16 5 -30 10
-30 6 0 10 -16 10 -36 0 -19 4 -33 8 -30 4 2 9 -12 10 -32 2 -20 7 -38 12 -40
6 -2 10 -13 10 -25 0 -18 2 -19 10 -7 7 11 10 7 10 -17 0 -18 5 -33 10 -33 6
0 10 -13 10 -30 0 -16 5 -30 10 -30 6 0 10 -13 10 -30 0 -16 5 -30 10 -30 6 0
10 -12 10 -26 0 -14 4 -23 10 -19 6 4 10 -13 10 -44 0 -27 4 -51 9 -53 6 -1
11 -33 12 -70 1 -38 6 -68 11 -68 4 0 8 -31 8 -70 0 -40 4 -70 10 -70 6 0 10
-13 10 -30 0 -16 5 -30 10 -30 6 0 10 -33 10 -79 0 -44 5 -83 10 -86 6 -4 10
-168 10 -461 0 -296 -3 -454 -10 -454 -5 0 -10 -22 -10 -50 0 -27 -4 -50 -9
-50 -9 0 -18 -50 -27 -157 -3 -35 -10 -63 -15 -63 -5 0 -9 -36 -9 -80 0 -47
-4 -80 -10 -80 -5 0 -10 -22 -10 -50 0 -27 -4 -50 -10 -50 -5 0 -10 -9 -10
-20 0 -11 -4 -20 -10 -20 -5 0 -10 -13 -10 -30 0 -16 -4 -30 -10 -30 -5 0 -10
-18 -10 -40 0 -22 -4 -40 -10 -40 -5 0 -10 -9 -10 -20 0 -11 -4 -20 -10 -20
-5 0 -10 -9 -10 -20 0 -11 -4 -20 -10 -20 -5 0 -10 -23 -10 -51 0 -31 -4 -48
-10 -44 -6 4 -10 -12 -10 -39 0 -25 -4 -46 -10 -46 -5 0 -10 -9 -10 -20 0 -11
-4 -20 -10 -20 -5 0 -10 -9 -10 -20 0 -11 -4 -20 -10 -20 -5 0 -10 -9 -10 -20
0 -11 -4 -20 -10 -20 -5 0 -10 -18 -10 -40 0 -22 -4 -40 -10 -40 -5 0 -10 -10
-10 -23 0 -13 -9 -33 -20 -45 -11 -12 -20 -28 -20 -37 0 -8 -4 -15 -10 -15 -5
0 -10 -9 -10 -20 0 -11 -4 -20 -10 -20 -5 0 -10 -8 -10 -18 0 -10 -9 -24 -20
-32 -12 -8 -20 -26 -20 -42 0 -15 -4 -28 -10 -28 -5 0 -10 -9 -10 -20 0 -11
-4 -20 -10 -20 -5 0 -10 -8 -10 -18 0 -10 -9 -24 -20 -32 -11 -8 -20 -22 -20
-32 0 -10 -4 -18 -10 -18 -5 0 -10 -12 -10 -26 0 -14 -4 -23 -10 -19 -5 3 -10
-3 -10 -14 0 -12 -4 -21 -10 -21 -5 0 -10 -7 -10 -15 0 -8 -4 -15 -10 -15 -5
0 -10 -5 -10 -11 0 -6 -13 -24 -30 -39 -16 -15 -30 -34 -30 -42 0 -7 -9 -20
-20 -28 -11 -8 -20 -25 -20 -38 0 -14 -15 -39 -37 -61 -21 -20 -39 -43 -41
-50 -2 -8 -16 -26 -32 -41 -17 -16 -30 -33 -30 -40 0 -6 -18 -29 -40 -50 -22
-21 -40 -44 -40 -50 0 -6 -22 -33 -50 -60 -27 -27 -50 -54 -50 -60 0 -13 -97
-111 -134 -135 -14 -10 -26 -21 -26 -27 0 -15 -48 -58 -65 -58 -8 0 -15 -7
-15 -15 0 -19 -35 -55 -73 -74 -20 -11 -24 -17 -15 -23 9 -5 8 -8 -5 -8 -10 0
-45 -27 -77 -60 -32 -33 -64 -60 -70 -60 -6 0 -29 -18 -50 -40 -21 -22 -44
-40 -50 -40 -7 0 -25 -14 -41 -31 -16 -17 -29 -25 -29 -19 0 7 -8 3 -19 -8
-10 -12 -27 -22 -37 -22 -16 0 -17 -2 -4 -10 12 -8 11 -10 -5 -10 -11 0 -27
-9 -35 -20 -8 -11 -22 -20 -32 -20 -10 0 -18 -4 -18 -10 0 -5 -7 -10 -16 -10
-8 0 -33 -18 -54 -40 -21 -22 -46 -40 -54 -40 -9 0 -16 -4 -16 -10 0 -5 -9
-10 -20 -10 -11 0 -20 -4 -20 -10 0 -5 -9 -10 -20 -10 -11 0 -20 -4 -20 -10 0
-5 -14 -10 -31 -10 -17 0 -28 -4 -24 -10 3 -5 -1 -10 -9 -10 -9 0 -16 -4 -16
-10 0 -5 -9 -10 -21 -10 -11 0 -17 -4 -14 -10 3 -5 -1 -10 -9 -10 -9 0 -16 -4
-16 -10 0 -5 -9 -10 -20 -10 -11 0 -20 -4 -20 -10 0 -5 -9 -10 -20 -10 -11 0
-20 -4 -20 -10 0 -5 -9 -10 -20 -10 -11 0 -20 -4 -20 -10 0 -5 -9 -10 -20 -10
-11 0 -20 -4 -20 -10 0 -5 -9 -10 -20 -10 -11 0 -20 -4 -20 -10 0 -5 -9 -10
-21 -10 -11 0 -17 -4 -14 -10 4 -6 -5 -10 -19 -10 -14 0 -26 -4 -26 -10 0 -5
-14 -10 -31 -10 -17 0 -28 -4 -24 -10 4 -6 -8 -10 -29 -10 -20 0 -36 -4 -36
-10 0 -5 -8 -10 -18 -10 -10 0 -24 -9 -32 -20 -9 -12 -26 -20 -45 -20 -23 0
-27 -3 -15 -10 11 -7 4 -10 -27 -10 -24 0 -43 -4 -43 -10 0 -5 -15 -10 -32
-10 -25 0 -29 -3 -18 -10 12 -8 11 -10 -7 -10 -13 0 -23 -4 -23 -10 0 -5 -13
-10 -30 -10 -16 0 -30 -4 -30 -10 0 -5 -13 -10 -30 -10 -16 0 -30 -4 -30 -10
0 -5 -13 -10 -30 -10 -16 0 -30 -4 -30 -10 0 -5 -18 -10 -41 -10 -24 0 -38 -4
-34 -10 4 -6 -10 -10 -35 -10 -25 0 -39 -4 -35 -10 4 -6 -13 -10 -44 -10 -28
0 -51 -4 -51 -10 0 -5 -13 -10 -30 -10 -16 0 -30 -4 -30 -10 0 -5 -9 -10 -20
-10 -11 0 -20 -4 -20 -10 0 -5 -23 -10 -51 -10 -31 0 -48 -4 -44 -10 4 -6 -15
-10 -50 -10 -35 0 -54 -4 -50 -10 4 -6 -8 -10 -30 -10 -22 0 -34 -4 -30 -10 4
-6 -12 -10 -40 -10 -28 0 -44 -4 -40 -10 4 -6 -17 -10 -55 -10 -38 0 -59 -4
-55 -10 4 -6 -17 -10 -57 -10 -44 0 -59 -3 -48 -10 11 -7 0 -10 -38 -10 -33 0
-51 -4 -47 -10 3 -5 1 -10 -4 -10 -6 0 -11 6 -12 13 0 10 -2 10 -6 0 -2 -8
-22 -13 -44 -13 -21 0 -39 -4 -39 -10 0 -6 -29 -10 -66 -10 -41 0 -63 -4 -59
-10 4 -6 -20 -10 -64 -10 -39 0 -71 -4 -71 -8 0 -4 -19 -9 -42 -11 -24 -1 -47
-6 -53 -12 -5 -5 -22 -9 -37 -9 -15 0 -28 -4 -28 -10 0 -6 -29 -10 -66 -10
-41 0 -63 -4 -59 -10 4 -6 -20 -10 -64 -10 -41 0 -71 -4 -71 -10 0 -5 -22 -10
-50 -10 -27 0 -50 -4 -50 -10 0 -5 -22 -10 -50 -10 -27 0 -50 -4 -50 -10 0 -6
-27 -10 -60 -10 -33 0 -60 -4 -60 -10 0 -6 -27 -10 -60 -10 -33 0 -60 -4 -60
-10 0 -5 -22 -10 -50 -10 -27 0 -50 -5 -50 -10 0 -6 -3 -9 -7 -9 -5 1 -33 1
-63 0 -40 -1 -51 -4 -40 -11 10 -7 -7 -10 -57 -10 -40 0 -73 -4 -73 -9 0 -5
-33 -12 -72 -15 -107 -7 -168 -17 -168 -26 0 -4 -21 -11 -47 -14 -122 -16
-239 -34 -326 -51 -21 -4 -40 -12 -43 -16 -3 -5 -23 -9 -45 -9 -21 0 -39 -4
-39 -10 0 -5 -22 -10 -50 -10 -27 0 -50 -4 -50 -10 0 -5 -21 -10 -46 -10 -27
0 -43 -4 -39 -10 4 -6 -17 -10 -54 -10 -34 0 -61 -4 -61 -10 0 -5 -15 -10 -34
-10 -19 0 -38 -4 -41 -10 -3 -5 -24 -10 -46 -10 -21 0 -39 -4 -39 -8 0 -4 -17
-9 -37 -10 -47 -3 -123 -24 -123 -34 0 -4 -13 -8 -30 -8 -16 0 -30 -4 -30 -8
0 -4 -19 -9 -42 -11 -24 -1 -47 -6 -53 -12 -5 -5 -22 -9 -37 -9 -15 0 -28 -4
-28 -8 0 -4 -12 -9 -27 -10 -15 -1 -29 -6 -32 -11 -6 -8 -30 -14 -108 -28 -18
-3 -33 -9 -33 -14 0 -5 -8 -9 -17 -9 -33 0 -272 -83 -292 -101 -11 -11 -27
-19 -36 -19 -8 0 -15 -4 -15 -10 0 -5 -9 -10 -20 -10 -11 0 -20 5 -20 10 0 6
-18 10 -39 10 -37 0 -39 2 -46 38 -5 20 -9 503 -9 1072 -1 569 1 979 4 910 3
-69 8 683 12 1670 3 987 9 1834 13 1883 4 48 11 87 16 87 5 0 9 27 9 60 0 33
4 60 10 60 6 0 10 23 10 51 0 31 4 48 10 44 6 -4 10 11 10 39 0 24 4 46 9 48
6 2 11 24 12 50 2 26 6 45 11 42 4 -3 8 21 8 53 0 41 3 54 10 43 7 -11 10 0
10 38 0 28 5 52 10 52 6 0 10 9 10 19 0 11 4 21 10 23 5 2 11 15 12 30 1 15 6
24 10 22 4 -3 8 6 8 20 0 14 5 26 10 26 6 0 10 13 10 29 0 16 4 31 10 33 5 2
11 15 12 30 1 15 6 24 10 22 4 -3 8 11 8 31 0 22 4 34 10 30 6 -4 10 9 11 32
0 30 2 34 9 18 7 -16 9 -14 9 15 1 24 8 41 21 50 11 8 20 22 20 32 0 9 5 20
10 23 6 3 10 17 10 31 0 13 5 24 10 24 6 0 10 13 10 28 0 16 8 34 20 42 11 8
20 22 20 32 0 10 5 18 10 18 6 0 10 9 10 20 0 11 5 20 10 20 6 0 10 9 10 20 0
11 5 20 10 20 6 0 10 9 10 20 0 11 5 20 10 20 6 0 10 9 10 21 0 11 5 17 10 14
6 -4 10 6 10 22 0 22 2 25 10 13 8 -13 10 -12 10 3 0 10 7 25 15 34 8 8 12 19
9 25 -4 7 -2 8 4 4 7 -4 12 -2 12 4 0 6 9 20 20 32 18 20 25 39 21 61 -1 5 3
6 9 2 5 -3 10 0 10 7 0 8 9 20 20 28 11 8 20 20 20 28 0 7 7 20 15 29 8 8 13
19 9 24 -3 5 0 8 6 7 7 -2 17 6 23 17 7 10 18 25 25 33 7 7 9 18 6 24 -4 7 -2
8 4 4 7 -4 12 -2 12 4 0 7 13 24 30 40 16 15 30 33 32 41 2 7 20 30 40 50 21
20 39 43 40 50 2 7 18 28 36 47 18 18 29 38 26 44 -4 7 -2 8 4 4 7 -4 12 -1
12 9 0 9 5 13 10 10 6 -3 10 1 10 10 0 9 4 14 9 11 9 -6 129 112 130 127 1 12
105 114 113 110 4 -2 23 12 42 32 19 19 38 35 41 35 9 0 45 32 130 115 45 44
88 81 96 83 8 2 16 8 17 13 2 5 10 9 17 9 7 0 36 23 64 50 28 28 58 50 66 50
8 0 15 5 15 10 0 6 7 10 16 10 9 0 12 5 8 12 -4 6 -3 8 4 4 6 -3 22 5 36 19
14 14 31 25 38 25 8 0 20 9 28 20 8 11 25 20 38 20 13 0 20 4 17 10 -3 6 3 10
14 10 25 0 90 35 112 61 9 11 24 19 33 19 9 0 16 5 16 10 0 6 14 10 30 10 17
0 30 5 30 10 0 6 8 10 18 10 10 0 24 9 32 20 8 11 22 20 32 20 10 0 18 5 18
10 0 6 9 10 20 10 11 0 20 5 20 10 0 6 9 10 20 10 11 0 20 5 20 10 0 6 14 10
30 10 17 0 30 5 30 10 0 6 16 10 36 10 21 0 33 4 29 10 -4 6 7 10 24 10 17 0
31 5 31 10 0 6 11 10 24 10 14 0 28 5 31 10 3 6 15 10 26 10 10 0 19 5 19 10
0 6 15 10 33 10 24 0 28 3 17 10 -11 7 -2 10 33 10 30 0 46 4 42 10 -4 6 7 10
24 10 17 0 31 5 31 10 0 6 15 10 33 10 24 0 28 3 17 10 -11 7 -4 10 28 10 23
0 42 5 42 10 0 6 21 10 46 10 27 0 43 4 39 10 -4 6 15 10 50 10 35 0 54 4 50
10 -4 6 22 10 70 10 42 0 74 4 71 8 -3 5 25 10 62 11 37 1 85 6 107 11 22 5
69 10 105 11 36 0 88 4 115 9 73 11 454 12 512 1z m-4180 -4084 c-2 -23 -3 -1
-3 48 0 50 1 68 3 42 2 -26 2 -67 0 -90z m0 -169 c-2 -18 -4 -6 -4 27 0 33 2
48 4 33 2 -15 2 -42 0 -60z m0 -2240 c-3 -8 -6 -5 -6 6 -1 11 2 17 5 13 3 -3
4 -12 1 -19z m9293 -2607 c0 -5 19 -11 43 -14 23 -3 67 -11 97 -17 30 -7 93
-14 139 -17 56 -3 80 -8 70 -14 -10 -6 -5 -9 19 -9 17 0 32 -4 32 -10 0 -5 9
-10 20 -10 11 0 20 -4 20 -10 0 -5 18 -10 40 -10 22 0 40 -4 40 -10 0 -5 23
-10 50 -10 28 0 50 -4 50 -10 0 -5 14 -10 30 -10 17 0 30 -4 30 -10 0 -5 3 -9
8 -9 4 1 23 1 42 0 27 -1 31 -4 20 -11 -11 -7 -7 -10 18 -10 17 0 32 -4 32
-10 0 -5 14 -10 30 -10 17 0 30 -4 30 -10 0 -5 10 -10 23 -10 18 0 19 -2 7
-10 -11 -7 -7 -10 18 -10 17 0 32 -4 32 -10 0 -5 18 -10 40 -10 22 0 40 -4 40
-10 0 -5 14 -10 31 -10 17 0 28 -4 24 -10 -3 -5 1 -10 9 -10 9 0 16 -4 16 -10
0 -5 9 -10 19 -10 11 0 21 -4 23 -10 2 -5 15 -11 30 -12 15 -1 24 -6 22 -10
-3 -4 6 -8 20 -8 14 0 26 -4 26 -10 0 -5 9 -10 20 -10 11 0 20 -4 20 -10 0 -5
9 -10 20 -10 11 0 20 -4 20 -10 0 -5 9 -10 20 -10 11 0 20 -4 20 -10 0 -5 9
-10 21 -10 11 0 17 -4 14 -10 -4 -6 6 -10 22 -10 22 0 25 -2 13 -10 -11 -7 -7
-10 18 -10 20 0 31 -4 27 -10 -4 -6 5 -10 19 -10 14 0 26 -4 26 -10 0 -5 9
-10 20 -10 11 0 20 -4 20 -10 0 -5 10 -10 23 -10 18 0 19 -2 7 -10 -12 -8 -11
-10 8 -10 12 0 22 -4 22 -10 0 -5 14 -10 30 -10 17 0 30 -4 30 -10 0 -5 8 -10
18 -10 10 0 24 -9 32 -20 8 -11 21 -20 30 -20 9 0 22 -9 30 -19 7 -11 17 -18
21 -15 4 2 24 -11 43 -31 19 -19 41 -35 48 -35 8 0 20 -9 28 -19 7 -11 17 -18
21 -15 4 2 19 -7 33 -21 14 -14 31 -25 38 -25 8 0 20 -9 28 -20 8 -11 20 -20
28 -20 7 0 35 -22 62 -50 27 -27 54 -50 60 -50 6 0 37 -26 68 -58 31 -32 61
-58 66 -59 16 -1 46 -27 46 -41 0 -7 3 -11 8 -9 4 2 17 -6 29 -19 15 -15 18
-24 10 -27 -7 -3 -2 -6 11 -6 13 -1 20 -5 17 -11 -3 -5 -1 -10 5 -10 14 0 60
-46 60 -60 0 -16 26 -40 43 -40 7 0 20 -12 28 -27 8 -15 62 -76 122 -135 59
-59 107 -112 107 -119 0 -6 14 -24 30 -39 17 -15 30 -33 30 -40 0 -6 23 -34
51 -61 28 -27 45 -49 39 -49 -7 0 2 -13 19 -29 17 -16 31 -36 31 -45 0 -9 5
-16 10 -16 6 0 10 -7 10 -16 0 -9 14 -29 30 -44 17 -15 30 -33 30 -39 0 -6 5
-11 10 -11 6 0 10 -7 10 -15 0 -8 5 -15 10 -15 6 0 10 -7 10 -16 0 -9 14 -29
30 -44 17 -15 30 -35 30 -44 0 -9 5 -16 10 -16 6 0 10 -9 10 -20 0 -11 5 -20
10 -20 6 0 10 -8 10 -18 0 -10 9 -24 20 -32 11 -8 20 -20 20 -28 0 -7 9 -22
20 -34 11 -12 20 -33 20 -47 0 -21 2 -23 10 -11 8 12 10 11 10 -7 0 -13 5 -23
10 -23 6 0 10 -9 10 -20 0 -11 6 -20 13 -20 8 0 7 -4 -3 -10 -10 -6 -11 -10
-2 -10 6 0 12 -8 12 -18 0 -10 9 -24 20 -32 11 -8 20 -22 20 -32 0 -10 5 -18
10 -18 6 0 10 -9 10 -20 0 -11 5 -20 10 -20 6 0 10 -14 10 -31 0 -17 4 -28 10
-24 6 4 10 -5 10 -19 0 -14 5 -26 10 -26 6 0 10 -9 10 -20 0 -11 5 -20 10 -20
6 0 10 -14 10 -31 0 -17 4 -28 10 -24 6 4 10 -8 10 -29 0 -20 5 -36 10 -36 6
0 10 -9 10 -20 0 -11 5 -20 10 -20 6 0 10 -9 10 -20 0 -11 5 -20 10 -20 6 0
10 -13 10 -30 0 -16 5 -30 10 -30 6 0 10 -18 10 -40 0 -22 5 -40 10 -40 6 0
10 -14 10 -31 0 -17 4 -28 10 -24 6 4 10 -5 10 -19 0 -14 5 -26 10 -26 6 0 10
-13 10 -29 0 -17 5 -33 10 -36 6 -3 10 -27 10 -53 0 -34 3 -43 10 -32 7 11 10
-4 10 -50 0 -46 3 -61 10 -50 7 11 10 3 10 -28 0 -26 4 -41 10 -37 6 4 10 -12
10 -39 0 -25 5 -46 10 -46 6 0 10 -30 10 -70 0 -40 4 -70 10 -70 6 0 10 -22
10 -50 0 -27 5 -50 10 -50 6 0 10 -11 10 -25 0 -14 5 -25 10 -25 6 0 10 -45
10 -115 0 -73 4 -115 10 -115 7 0 9 -143 6 -452 -5 -473 -11 -617 -27 -632 -5
-6 -9 -25 -9 -43 0 -18 -4 -33 -10 -33 -5 0 -10 -18 -10 -40 0 -25 -5 -40 -12
-41 -9 0 -9 -2 1 -6 8 -4 10 -8 3 -12 -6 -4 -12 -37 -13 -74 -1 -37 -6 -67
-11 -67 -4 0 -8 -20 -8 -44 0 -25 -4 -48 -10 -51 -5 -3 -10 -31 -10 -61 0 -34
-4 -53 -10 -49 -6 4 -10 -7 -10 -24 0 -17 -4 -31 -10 -31 -5 0 -10 -18 -10
-40 0 -22 -4 -40 -10 -40 -5 0 -10 -18 -10 -40 0 -22 -4 -40 -10 -40 -5 0 -10
-12 -10 -26 0 -14 -4 -23 -10 -19 -6 4 -10 -7 -10 -24 0 -17 -4 -31 -10 -31
-5 0 -10 -18 -10 -40 0 -22 -4 -40 -10 -40 -5 0 -10 -15 -10 -33 0 -19 -8 -42
-20 -55 -11 -12 -20 -28 -20 -37 0 -8 -4 -15 -10 -15 -5 0 -10 -9 -10 -20 0
-11 -4 -20 -10 -20 -5 0 -10 -14 -10 -31 0 -17 -4 -28 -10 -24 -9 5 -15 -15
-11 -37 0 -5 -3 -8 -9 -8 -5 0 -10 -9 -10 -20 0 -11 -4 -20 -10 -20 -5 0 -10
-15 -10 -32 0 -25 -3 -29 -10 -18 -8 12 -10 11 -10 -7 0 -13 -4 -23 -10 -23
-5 0 -10 -9 -10 -20 0 -11 -4 -20 -10 -20 -5 0 -10 -9 -10 -20 0 -11 -4 -20
-10 -20 -5 0 -10 -13 -10 -30 0 -16 -4 -30 -10 -30 -5 0 -10 -8 -10 -18 0 -10
-9 -24 -20 -32 -11 -8 -20 -21 -20 -30 0 -9 -9 -22 -20 -30 -11 -8 -20 -20
-20 -28 0 -7 -7 -20 -15 -29 -8 -8 -12 -19 -9 -25 4 -7 2 -8 -4 -4 -7 4 -12 1
-12 -8 0 -9 -4 -16 -10 -16 -5 0 -10 -9 -10 -20 0 -11 -4 -20 -10 -20 -5 0
-10 -7 -10 -16 0 -9 -13 -29 -30 -44 -16 -15 -30 -35 -30 -44 0 -9 -4 -16 -10
-16 -5 0 -10 -7 -10 -16 0 -9 -13 -29 -30 -44 -16 -15 -30 -34 -30 -42 0 -7
-9 -20 -19 -28 -11 -7 -18 -17 -15 -21 2 -4 -7 -19 -21 -33 -13 -13 -26 -31
-27 -38 -2 -7 -11 -21 -21 -30 -10 -9 -18 -19 -18 -22 3 -24 0 -30 -9 -16 -8
12 -10 10 -10 -10 0 -20 -2 -22 -10 -10 -8 13 -10 12 -10 -3 0 -10 -27 -45
-60 -77 -33 -32 -60 -64 -60 -70 0 -6 -4 -8 -10 -5 -5 3 -10 -2 -10 -12 0 -10
-9 -25 -20 -33 -11 -8 -20 -20 -20 -28 0 -19 -25 -42 -47 -43 -10 0 -13 -3 -6
-5 13 -6 -290 -314 -307 -314 -6 0 -46 -36 -90 -80 -43 -44 -85 -81 -92 -82
-7 -2 -24 -14 -38 -28 -14 -14 -31 -26 -38 -28 -7 -1 -29 -18 -48 -37 -19 -20
-39 -33 -45 -30 -5 4 -9 -2 -9 -11 0 -10 -3 -14 -6 -11 -4 3 -19 -7 -34 -23
-16 -17 -34 -30 -42 -30 -7 0 -20 -9 -28 -20 -8 -11 -21 -20 -30 -20 -9 0 -22
-9 -30 -19 -7 -11 -17 -18 -21 -15 -4 2 -19 -7 -33 -21 -14 -14 -36 -25 -48
-25 -13 0 -30 -9 -38 -20 -8 -11 -21 -20 -30 -20 -9 0 -22 -9 -30 -20 -8 -11
-22 -20 -32 -20 -10 0 -18 -4 -18 -10 0 -5 -7 -10 -16 -10 -9 0 -24 -8 -33
-17 -9 -10 -23 -19 -31 -21 -8 -2 -16 -8 -18 -13 -2 -5 -12 -9 -23 -9 -10 0
-19 -4 -19 -10 0 -5 -9 -10 -20 -10 -11 0 -20 -4 -20 -10 0 -5 -9 -10 -20 -10
-11 0 -20 -4 -20 -10 0 -5 -9 -10 -20 -10 -11 0 -20 -4 -20 -10 0 -5 -9 -10
-20 -10 -11 0 -20 -4 -20 -10 0 -5 -13 -10 -30 -10 -16 0 -30 -4 -30 -10 0 -5
-9 -10 -20 -10 -11 0 -20 -4 -20 -10 0 -5 -9 -10 -20 -10 -11 0 -20 -4 -20
-10 0 -5 -9 -10 -20 -10 -11 0 -20 -4 -20 -10 0 -5 -13 -10 -30 -10 -16 0 -30
-3 -30 -7 0 -9 -49 -33 -67 -33 -7 0 -13 -4 -13 -10 0 -5 -13 -10 -30 -10 -16
0 -30 -4 -30 -10 0 -5 -19 -10 -42 -10 -32 0 -39 -3 -28 -10 11 -7 7 -10 -17
-10 -18 0 -33 -4 -33 -10 0 -5 -13 -10 -30 -10 -16 0 -30 -4 -30 -10 0 -5 -13
-10 -30 -10 -16 0 -30 -4 -30 -10 0 -5 -18 -10 -40 -10 -22 0 -40 -4 -40 -10
0 -5 -16 -10 -36 -10 -21 0 -33 -4 -29 -10 3 -6 -5 -10 -19 -10 -14 0 -28 -4
-31 -10 -3 -5 -30 -10 -58 -10 -37 0 -48 -3 -37 -10 10 -7 -8 -10 -60 -10 -52
0 -70 -3 -60 -10 11 -7 5 -10 -23 -10 -23 0 -36 -4 -32 -10 4 -6 -8 -10 -29
-10 -19 0 -38 -4 -41 -10 -3 -5 -52 -10 -108 -11 -67 -1 -93 -4 -77 -9 15 -5
-52 -9 -165 -10 -112 -1 -178 -6 -160 -10 37 -9 -7566 -4 -7685 5 -47 4 -87
11 -90 15 -3 5 -31 10 -63 11 -31 1 -57 6 -57 11 0 4 -9 8 -20 8 -11 0 -20 5
-20 11 0 5 -4 8 -9 4 -5 -3 -16 2 -25 10 -8 8 -26 16 -40 17 -13 1 -22 6 -20
10 3 4 -11 8 -30 8 -20 0 -36 5 -36 10 0 6 -9 10 -20 10 -11 0 -20 5 -20 10 0
6 -6 10 -12 10 -7 0 -26 11 -42 25 -16 13 -33 22 -39 18 -6 -3 -7 -1 -3 5 4 7
2 12 -4 12 -6 0 -18 7 -27 15 -8 8 -19 12 -25 9 -7 -4 -8 -2 -4 4 4 7 1 12 -8
12 -9 0 -16 5 -16 10 0 6 -7 10 -15 10 -19 0 -254 235 -274 273 -8 15 -18 27
-23 27 -4 0 -8 6 -8 13 0 7 -8 22 -17 33 -10 10 -24 31 -32 47 -8 15 -18 27
-23 27 -4 0 -8 9 -8 20 0 11 -4 20 -10 20 -5 0 -10 7 -10 16 0 8 -4 12 -10 9
-6 -4 -10 7 -10 24 0 17 -5 31 -11 31 -5 0 -8 4 -5 8 3 5 -2 21 -10 36 -7 16
-14 35 -14 42 0 8 -4 14 -10 14 -5 0 -10 10 -10 23 0 18 -2 19 -10 7 -7 -11
-10 -3 -10 30 0 33 -3 41 -10 30 -7 -11 -10 0 -10 38 0 28 -4 52 -10 52 -5 0
-10 23 -10 50 0 28 -4 50 -10 50 -6 0 -10 35 -11 83 0 55 -3 75 -9 62 -5 -11
-9 611 -9 1428 -1 958 2 1447 9 1447 6 0 10 30 10 71 0 38 4 89 9 112 5 23 15
69 21 102 7 33 16 69 20 80 4 11 17 52 29 90 22 68 34 102 52 137 5 10 9 29 9
43 0 14 4 25 8 25 5 0 15 12 23 28 8 15 16 29 19 32 12 12 30 51 30 65 0 8 3
15 8 15 4 0 12 10 17 23 18 37 60 112 66 117 4 3 17 21 30 40 32 47 80 111
102 134 9 11 17 24 17 28 0 9 86 98 95 98 6 0 73 62 161 148 29 28 60 52 69
52 8 0 15 4 15 9 0 5 8 12 18 15 10 3 35 22 55 41 20 19 41 35 45 35 5 0 17 8
28 18 10 9 40 28 67 41 26 13 47 28 47 33 0 4 9 8 20 8 11 0 20 3 20 8 0 8 49
32 67 32 7 0 13 5 13 10 0 6 9 10 20 10 11 0 20 4 20 8 0 5 16 14 35 22 19 7
32 17 29 22 -3 4 7 8 21 8 14 0 24 4 21 8 -2 4 7 9 22 10 15 1 28 7 30 12 2 6
12 10 23 10 10 0 19 5 19 10 0 6 12 10 26 10 14 0 23 4 19 10 -4 6 8 10 29 10
19 0 38 5 41 10 3 6 15 10 26 10 10 0 19 5 19 10 0 6 9 10 20 10 11 0 20 5 20
10 0 6 16 10 36 10 21 0 33 4 29 10 -4 6 10 10 35 10 39 0 156 31 192 51 10 5
25 9 33 9 8 0 15 5 15 10 0 6 14 10 30 10 17 0 30 5 30 10 0 6 14 10 30 10 17
0 30 5 30 10 0 6 19 10 43 10 31 0 38 3 27 10 -10 7 11 10 70 10 59 0 80 3 70
10 -10 7 13 10 75 11 61 1 82 4 65 9 -18 6 -4 8 48 9 46 1 71 5 67 11 -4 6 14
10 47 10 38 0 49 3 38 10 -10 7 9 10 65 11 54 0 74 3 60 9 -13 5 23 9 100 9
66 1 161 8 210 17 82 13 174 26 294 41 30 4 39 8 30 14 -9 5 10 9 51 9 46 0
61 3 50 10 -11 7 0 10 38 10 28 0 52 5 52 10 0 6 18 10 40 10 22 0 40 5 40 10
0 6 29 10 66 10 41 0 63 4 59 10 -4 6 28 10 87 11 62 1 85 4 68 9 -18 6 -3 8
50 9 52 1 70 4 60 11 -11 7 1 10 40 10 39 0 51 3 40 10 -11 7 3 10 48 10 34 0
62 4 62 10 0 6 35 10 86 10 47 0 83 4 80 9 -3 4 2 8 12 8 50 0 73 4 68 12 -3
4 2 8 12 8 54 0 67 3 52 13 -11 7 -7 10 18 10 17 0 32 5 32 10 0 6 14 10 30
10 17 0 30 5 30 10 0 6 14 10 30 10 17 0 30 5 30 13 0 8 4 7 10 -3 6 -10 10
-11 10 -2 0 7 13 12 30 12 17 0 30 5 30 10 0 6 28 10 63 10 44 0 58 3 47 10
-11 7 1 10 40 10 39 0 51 3 40 10 -11 7 1 10 40 10 39 0 51 3 40 10 -11 7 -3
10 30 10 33 0 41 3 30 10 -11 7 -3 10 30 10 33 0 41 3 30 10 -10 7 8 10 60 11
52 1 67 3 50 9 -20 6 -14 8 24 8 27 -1 51 5 56 12 4 6 10 11 14 11 20 -3 26 0
21 9 -4 6 5 10 19 10 14 0 26 5 26 10 0 6 14 10 30 10 17 0 30 5 30 10 0 6 9
10 20 10 11 0 20 5 20 10 0 6 14 10 30 10 17 0 30 5 30 10 0 6 14 10 30 10 17
0 30 5 30 10 0 6 18 10 40 10 22 0 40 5 40 10 0 6 19 10 43 10 31 0 38 3 27
10 -11 7 -7 10 18 10 17 0 32 5 32 10 0 6 9 10 20 10 11 0 20 5 20 10 0 6 18
10 40 10 22 0 40 5 40 10 0 6 14 10 30 10 17 0 30 5 30 10 0 6 9 10 20 10 11
0 20 5 20 10 0 6 9 10 20 10 11 0 20 5 20 10 0 6 7 10 16 10 8 0 12 5 9 10 -3
6 3 10 14 10 12 0 21 5 21 10 0 6 19 10 43 10 31 0 38 3 27 10 -11 7 -5 10 23
10 21 0 36 4 33 8 -2 4 7 9 22 10 15 1 29 7 30 12 2 6 12 10 23 10 10 0 19 5
19 10 0 6 9 10 20 10 11 0 20 5 20 10 0 6 12 10 26 10 14 0 23 4 19 10 -4 6 8
10 30 10 22 0 34 4 30 10 -4 6 7 10 24 10 17 0 31 5 31 10 0 6 10 10 23 10 18
0 19 2 7 10 -11 7 -6 10 20 10 26 0 31 3 20 10 -11 7 -7 10 18 10 20 0 31 4
27 10 -4 6 5 10 19 10 14 0 26 5 26 10 0 6 9 10 21 10 11 0 17 5 14 10 -4 6 5
10 19 10 14 0 26 5 26 10 0 6 14 10 30 10 17 0 30 5 30 10 0 6 8 10 18 10 10
0 24 9 32 20 8 11 22 20 32 20 10 0 18 5 18 10 0 6 14 10 30 10 17 0 30 5 30
10 0 6 9 10 20 10 11 0 20 5 20 10 0 6 8 10 18 10 10 0 24 9 32 20 8 11 21 20
30 20 9 0 22 9 30 20 8 11 22 20 32 20 10 0 18 5 18 10 0 6 9 10 20 10 11 0
20 5 20 10 0 6 9 10 20 10 11 0 20 5 20 10 0 6 8 10 18 10 10 0 24 9 32 20 8
11 22 20 32 20 10 0 18 5 18 10 0 6 12 10 26 10 14 0 23 4 19 10 -3 6 2 10 12
10 10 0 25 9 33 20 8 11 20 20 28 20 7 0 22 9 34 20 12 11 33 20 47 20 21 0
23 2 11 10 -12 8 -11 10 8 10 12 0 22 5 22 10 0 6 9 10 20 10 11 0 20 5 20 10
0 6 7 10 15 10 8 0 29 14 47 30 17 17 37 30 44 30 8 0 14 5 14 10 0 6 12 10
26 10 14 0 23 4 19 10 -3 6 1 10 10 10 10 0 30 14 45 30 15 17 33 30 40 30 7
0 25 14 40 30 15 17 35 30 44 30 9 0 16 5 16 10 0 6 7 10 15 10 8 0 34 18 56
40 23 22 48 40 55 40 8 0 14 5 14 10 0 6 7 10 16 10 8 0 33 18 54 40 21 22 45
40 52 40 7 0 20 9 28 20 8 11 21 20 28 20 8 0 26 13 42 30 15 16 30 26 34 23
3 -3 6 -1 6 6 0 16 25 41 40 41 6 0 33 21 58 48 26 26 54 48 61 50 7 1 38 28
70 60 31 31 62 58 69 60 7 1 58 47 112 102 55 55 104 100 111 100 6 0 24 14
39 30 15 17 35 30 44 30 9 0 16 5 16 10 0 6 9 10 20 10 11 0 20 5 20 10 0 6
27 10 60 10 33 0 60 -4 60 -9z"/>
<path d="M20458 16883 c7 -3 16 -2 19 1 4 3 -2 6 -13 5 -11 0 -14 -3 -6 -6z"/>
<path d="M11255 10680 c0 -366 1 -515 2 -332 2 182 2 482 0 665 -1 182 -2 33
-2 -333z"/>
<path d="M20208 4543 c7 -3 16 -2 19 1 4 3 -2 6 -13 5 -11 0 -14 -3 -6 -6z"/>
<path d="M20248 4543 c7 -3 16 -2 19 1 4 3 -2 6 -13 5 -11 0 -14 -3 -6 -6z"/>
</g>
</svg>
